# xmcd
#
# Track frame offsets:
# 150
# 12050
# 21757
# 31252
# 42122
# 52957
# 63352
# 75767
# 87880
# 102967
# 116042
# 126252
# 136450
# 148055
# 158290
# 169710
# 181427
# 192652
# 204415
# 213707
#
# Disc length: 3011 seconds
#
#
# Revision: 4
# Processed by: cddbd v1.5.1PL2 Copyright (c) Steve Scherf et al.
# Submitted via: FreeRIP 2.60 
#
DISCID=090bc114
DTITLE=Various Artist - 20 Country ClassicsVol 1
DYEAR=1994
DGENRE=Country
TTITLE0=Johnny Cash-Walk The Line
TTITLE1=Benny Barnes-Poor Man's Riches
TTITLE2=Jeannie C  Riley-The Girl Most Likely
TTITLE3=Carl Belew-Am I That Easy To Forget
TTITLE4=Roger Miller-King of the Road
TTITLE5=Johnny Paycheck-A-11
TTITLE6=Red Simpson-Roll Truck Roll
TTITLE7=Johnny Cash-Give My Love To Rose
TTITLE8=T Texas Tyler-Deck of Cards
TTITLE9=Leroy Van Dyke-The Auctioneer
TTITLE10=Dave Dudley-Six Days On The Road
TTITLE11=Floyd Tillman-Slippin' Around
TTITLE12=George Jones-Window Up Above
TTITLE13=Carl Perkins-Blue Suede Shoes
TTITLE14=Johnny orton-All For The Love Of A Girl
TTITLE15=Floyd Cramer-Fancy Pants
TTITLE16=Johnny Cash-Big River
TTITLE17=Roger Miller-Little Green Apples
TTITLE18=Maddox Brothers and Rose-Sally Let Your Bangs Hang Down
TTITLE19=Slim Willett-Don't Let The Stars Get In Your Eyes
EXTD=
EXTT0=
EXTT1=
EXTT2=
EXTT3=
EXTT4=
EXTT5=
EXTT6=
EXTT7=
EXTT8=
EXTT9=
EXTT10=
EXTT11=
EXTT12=
EXTT13=
EXTT14=
EXTT15=
EXTT16=
EXTT17=
EXTT18=
EXTT19=
PLAYORDER=
